<?xml version="1.0" standalone="no"?>
<!DOCTYPE svg PUBLIC "-//W3C//DTD SVG 20010904//EN"
 "http://www.w3.org/TR/2001/REC-SVG-20010904/DTD/svg10.dtd">
<svg version="1.0" xmlns="http://www.w3.org/2000/svg"
 width="1029.000000pt" height="1029.000000pt" viewBox="0 0 1029.000000 1029.000000"
 preserveAspectRatio="xMidYMid meet">
<metadata>
Created by potrace 1.14, written by Peter Selinger 2001-2017
</metadata>
<g transform="translate(0.000000,1029.000000) scale(0.100000,-0.100000)"
fill="#000000" stroke="none">
<path d="M735 5495 c-88 -204 -114 -250 -116 -212 0 6 -3 80 -5 162 -3 83 -6
170 -8 195 l-2 45 -84 0 c-47 0 -128 -2 -180 -5 l-95 -5 -1 -35 c-1 -19 -5
-147 -8 -285 -3 -137 -9 -341 -12 -452 -2 -112 -1 -203 3 -204 29 -3 116 -8
226 -13 l128 -5 -6 165 c-3 90 -2 164 2 164 4 -1 86 -100 182 -220 l174 -219
41 32 c23 17 43 34 46 37 18 20 110 91 111 86 1 -3 2 -12 3 -18 0 -7 16 -14
36 -15 19 0 101 -4 183 -8 l147 -6 1 113 c1 62 2 133 3 158 l1 45 60 -3 c95
-4 115 -11 116 -35 0 -12 0 -82 -1 -154 l-1 -133 183 8 c101 4 208 7 238 6 51
-1 264 -14 284 -17 10 -2 37 142 29 156 -2 4 6 7 19 8 62 2 120 0 125 -4 3 -3
10 -39 15 -81 l11 -75 51 4 c28 3 78 8 111 12 103 12 174 10 463 -13 34 -3 62
-4 62 -2 0 2 -9 50 -20 108 -11 58 -23 119 -26 135 -2 17 -13 69 -23 118 -12
60 -15 87 -7 87 6 0 62 -101 124 -225 l112 -226 48 6 c26 3 73 7 104 9 32 3
82 8 112 11 l54 7 1 107 c1 58 4 203 7 321 3 118 7 260 7 314 l2 100 -179 2
-178 2 6 -66 c6 -63 9 -84 21 -158 3 -17 8 -56 11 -85 3 -30 7 -58 7 -63 1 -5
-3 -10 -9 -12 -6 -3 -45 84 -89 195 l-79 199 -50 -3 c-27 -3 -65 -7 -85 -9
-20 -3 -69 -8 -108 -11 -66 -6 -73 -9 -74 -29 0 -11 -2 -28 -4 -37 -1 -10 -6
-52 -10 -95 -3 -44 -8 -92 -10 -109 -3 -16 -7 -55 -9 -85 -15 -163 -19 -206
-19 -218 -1 -33 -20 24 -97 288 -46 157 -85 287 -87 289 -3 4 -45 6 -302 14
l-113 4 -13 -31 c-7 -17 -64 -183 -126 -368 -63 -185 -115 -336 -116 -335 -1
2 -4 99 -8 217 -8 327 -15 524 -18 526 -1 1 -77 5 -169 8 l-168 6 0 -175 c0
-160 -2 -175 -17 -176 -10 0 -51 -2 -91 -4 l-73 -3 3 171 3 172 -30 -1 c-185
-9 -299 -16 -311 -21 -7 -3 -13 -15 -12 -26 2 -43 -16 -533 -21 -546 -2 -7
-221 212 -221 221 0 4 23 40 50 80 28 40 84 121 125 180 l73 107 -36 17 c-21
9 -95 46 -166 81 -70 34 -129 63 -130 63 -2 0 -47 -101 -101 -225z m1779 -201
c8 -21 66 -263 66 -275 0 -5 -34 -9 -76 -9 -74 0 -76 1 -71 23 3 12 15 76 27
142 12 66 24 123 26 127 8 13 21 9 28 -8z"/>
<path d="M4421 5681 c-5 -14 -32 -96 -59 -181 -28 -85 -96 -297 -152 -470 -55
-173 -103 -320 -104 -325 -2 -6 6 -11 18 -12 11 0 53 -3 91 -6 39 -3 115 -9
170 -12 55 -4 103 -9 106 -11 4 -2 15 31 24 74 10 42 21 81 25 85 6 6 138 12
186 8 6 -1 14 -27 18 -58 12 -107 11 -105 70 -98 28 3 71 8 96 10 41 3 156 15
205 20 11 1 26 3 33 4 8 0 11 8 8 19 -3 9 -8 31 -12 47 l-7 30 42 -38 c135
-121 416 -139 588 -37 43 25 44 25 37 -8 -4 -20 -2 -29 8 -29 7 -1 45 -4 83
-7 39 -3 118 -8 178 -12 l107 -6 1 28 c0 16 2 38 5 49 2 11 5 33 6 48 1 16 6
31 10 33 6 4 94 8 125 5 12 -1 18 -23 28 -108 l7 -52 46 4 c51 4 152 14 192
20 134 18 180 17 300 -11 14 -3 84 -7 155 -9 206 -5 319 28 414 123 26 26 56
68 66 94 11 27 22 48 25 48 3 0 7 -55 8 -122 1 -67 5 -124 7 -127 3 -3 47 -6
98 -7 51 -1 203 -5 338 -8 220 -6 247 -5 253 9 3 9 10 14 14 11 5 -3 53 -8
108 -11 54 -3 131 -8 169 -10 l70 -6 3 53 c2 29 5 67 7 83 2 17 6 82 10 145 4
63 9 117 10 119 10 10 25 -20 60 -126 22 -65 41 -120 42 -122 4 -6 182 -5 189
1 3 4 12 32 21 65 20 78 21 81 34 136 11 50 32 59 35 16 2 -30 13 -112 19
-159 3 -19 7 -51 10 -70 12 -104 17 -145 20 -148 7 -8 363 12 371 21 2 2 -1
21 -6 42 -8 36 -91 454 -105 530 -3 17 -16 81 -28 143 -13 62 -20 109 -17 105
4 -5 75 -141 158 -304 l151 -296 -6 -121 -5 -121 64 4 c34 2 106 7 158 11 52
4 106 7 120 8 40 2 50 13 45 54 -20 181 -24 167 82 362 29 52 90 167 137 255
l86 160 -53 7 c-28 4 -79 10 -112 13 -33 3 -67 8 -75 10 -8 2 -44 7 -80 10
-36 4 -68 9 -72 11 -8 5 -29 -31 -26 -43 2 -10 -9 -84 -27 -178 -7 -38 -17
-89 -20 -112 -10 -62 -30 -54 -49 20 -77 285 -87 314 -106 302 -3 -1 -50 -6
-105 -9 -55 -4 -138 -9 -184 -12 -61 -5 -85 -3 -91 6 -5 8 -40 14 -96 16 -298
13 -284 13 -285 -5 0 -9 -2 -25 -4 -36 -2 -11 -7 -42 -10 -70 -3 -27 -8 -57
-10 -65 -4 -14 -14 -79 -20 -125 -1 -11 -3 -24 -4 -29 -3 -27 -24 22 -59 144
-22 74 -45 147 -51 162 l-10 28 -181 -4 c-100 -2 -184 -7 -188 -10 -6 -7 -7
-8 -15 -81 -16 -131 -66 -467 -70 -472 -10 -9 -258 -37 -342 -38 l-39 0 -2 43
c-1 32 3 42 15 43 9 1 57 3 106 4 50 2 99 4 110 4 18 1 20 9 23 91 l2 91 -77
-6 c-43 -3 -102 -8 -130 -10 l-53 -5 0 50 0 50 98 -6 c53 -4 133 -7 177 -8
l80 -1 -1 60 c-1 33 -3 93 -4 133 l-3 72 -191 -5 c-363 -10 -488 -15 -495 -19
-4 -3 -5 -58 -4 -123 l3 -118 -26 52 c-47 96 -163 175 -299 203 -91 19 -381
16 -414 -4 -4 -3 -26 -7 -51 -11 -76 -11 -76 -11 -73 -122 4 -216 4 -505 -1
-510 -2 -3 -10 15 -16 38 -24 92 -172 593 -177 598 -2 3 -50 6 -106 8 -56 2
-148 4 -205 6 -87 3 -104 2 -111 -12 -5 -9 -55 -153 -111 -321 -57 -168 -104
-306 -105 -308 -2 -2 -26 35 -55 82 -29 48 -54 86 -56 86 -2 0 -31 -20 -64
-44 -73 -54 -118 -70 -177 -63 -49 5 -85 27 -117 70 -30 41 -28 143 4 190 59
86 183 86 297 1 l32 -24 67 102 c37 56 69 110 71 119 7 24 -84 86 -170 117
-88 31 -242 39 -324 18 -162 -43 -272 -162 -312 -339 l-16 -71 -49 190 c-26
104 -49 196 -51 204 -13 52 -37 135 -41 139 -4 5 -60 7 -336 14 l-137 4 -10
-26z m239 -255 c0 -3 7 -38 16 -78 8 -40 17 -80 18 -88 7 -35 20 -95 21 -100
0 -3 4 -23 8 -45 5 -22 10 -48 13 -57 5 -16 -5 -18 -104 -18 l-110 0 13 48
c74 263 100 342 112 342 7 0 13 -2 13 -4z m1666 -261 c19 -77 34 -143 34 -147
0 -5 -34 -8 -76 -8 l-76 0 6 33 c4 17 16 85 28 150 29 159 41 155 84 -28z
m851 106 c91 -91 54 -311 -55 -328 -9 -1 -34 2 -54 8 l-38 10 -1 97 c0 53 -2
120 -3 147 -4 86 0 90 86 94 28 1 43 -6 65 -28z"/>
</g>
</svg>
